<svg width="145" height="145" viewBox="0 0 145 145" fill="none" xmlns="http://www.w3.org/2000/svg">
<path d="M43.5 116C35.525 116 29 122.525 29 130.5C29 138.475 35.525 145 43.5 145C51.475 145 58 138.475 58 130.5C58 122.525 51.475 116 43.5 116ZM0 0V14.5H14.5L40.6 69.6L30.45 87C29.725 89.175 29 92.075 29 94.25C29 102.225 35.525 108.75 43.5 108.75H130.5V94.25H46.4C45.675 94.25 44.95 93.525 44.95 92.8V92.0747L51.475 79.7497H105.125C110.925 79.7497 115.275 76.8497 117.45 72.4997L143.55 25.375C145 23.925 145 23.2 145 21.75C145 17.4 142.1 14.5 137.75 14.5H30.45L23.925 0H0ZM116 116C108.025 116 101.5 122.525 101.5 130.5C101.5 138.475 108.025 145 116 145C123.975 145 130.5 138.475 130.5 130.5C130.5 122.525 123.975 116 116 116Z" fill="#F57000"/>
</svg>
